<?xml version="1.0" encoding="UTF-8"?>
<svg width="25.358mm" height="29.524mm" version="1.1" viewBox="0 0 25.358 29.524" xmlns="http://www.w3.org/2000/svg">
<g transform="translate(-143.72 -119.16)">
<g stroke-width=".265" aria-label="ν">
<g transform="translate(0 4.116)" fill="#f29325">
<path d="m146.54 123.97c-1.5398 0-2.8107 1.2704-2.8107 2.8102v14.98c0 1.5398 1.2709 2.8107 2.8107 2.8107h14.98c1.5398 0 2.8086-1.2709 2.8086-2.8107v-12.902c-0.48323 0.0806-1.0574 0.13238-1.9415 0.15917v12.743c0 0.49748-0.36964 0.86713-0.86713 0.86713h-14.98c-0.49749 0-0.8692-0.36965-0.8692-0.86713v-14.98c0-0.49749 0.37171-0.86713 0.8692-0.86713h7.5639c0.0685-0.57501 0.12853-1.2579 0.31523-1.943z" color="#000000" fill="#f29325" stroke-linejoin="round"/>
</g>
<path d="m146.96 132.51 4.651-0.99814s0.95845 3.1563 1.2446 4.7745c0.41968 2.3732 0.61636 7.2717 0.61636 7.2717 0.85922-0.96474 1.528-1.6696 2.2584-2.576 0.32038-0.39756 0.60051-0.84317 0.96275-1.3299 0.50275-0.6755 2.6012-3.6928 2.9472-5.9833 0.0336-0.22258 0.12741-0.78803 0.0819-1.1795-0.0585-0.50324-0.34795-0.67346-0.66508-0.83466-0.50569-0.25703-1.0477-0.44231-1.2696-1.1139-0.15729-0.47597 0.0408-1.2903 0.81807-1.5848 1.0948-0.41478 2.0044 0.43819 2.2066 1.1035 0.31321 1.0305 0.43744 2.3907-0.67638 5.0821-1.1696 2.8261-2.5067 4.8586-4.2102 6.8679-1.6133 1.9028-3.2869 3.5301-4.1768 4.4387l-0.59225 3e-3s-0.21791-4.784-0.46361-7.1645c-0.26421-2.5599-0.6186-4.1172-0.93124-5.0287-0.48166-1.4043-1.1535-1.4766-2.6832-1.1898z" fill="#f29325" style="paint-order:markers stroke fill"/>
<circle cx="157.46" cy="127.27" r="1.1224" fill="#f29325" style="paint-order:markers stroke fill"/>
<circle cx="165.89" cy="124.88" r="1.1224" fill="#f29325" style="paint-order:markers stroke fill"/>
<circle cx="161.35" cy="123.57" r=".67341" fill="#f29325" style="paint-order:markers stroke fill"/>
<circle cx="163.16" cy="124.78" r=".67341" fill="#f29325" style="paint-order:markers stroke fill"/>
<circle cx="159.07" cy="119.84" r=".67341" fill="#f29325" style="paint-order:markers stroke fill"/>
<circle cx="168.41" cy="123.52" r=".67341" fill="#f29325" style="paint-order:markers stroke fill"/>
<circle cx="162.17" cy="120.54" r=".67341" fill="#f29325" style="paint-order:markers stroke fill"/>
<circle cx="163.81" cy="122.4" r=".67341" fill="#f29325" style="paint-order:markers stroke fill"/>
<ellipse cx="163.99" cy="126.91" rx=".76233" ry=".76233" fill="none" stroke="#f29325" stroke-linejoin="round" stroke-width=".49558" style="paint-order:markers stroke fill"/>
<ellipse cx="159.33" cy="123.41" rx=".76233" ry=".76233" fill="none" stroke="#f29325" stroke-linejoin="round" stroke-width=".49558" style="paint-order:markers stroke fill"/>
<ellipse cx="166.26" cy="127.7" rx=".76233" ry=".76233" fill="none" stroke="#f29325" stroke-linejoin="round" stroke-width=".49558" style="paint-order:markers stroke fill"/>
<circle cx="160.79" cy="126.48" r="1.908" fill="#f29325" style="paint-order:markers stroke fill"/>
<ellipse cx="163.71" cy="130.03" rx="1.4403" ry="1.4403" fill="none" stroke="#f29325" stroke-linejoin="round" stroke-width=".93545" style="paint-order:markers stroke fill"/>
</g>
</g>
</svg>
